<svg xmlns="http://www.w3.org/2000/svg" viewBox="0 0 500 500"><defs><style>.cls-1{fill:#fff;}.cls-2{fill:#00adb5;}.cls-3{fill:#ff5722;}</style></defs><g id="Background"><rect width="500" height="500"/></g><g id="Padding"><circle class="cls-1" cx="250" cy="250" r="250"/></g><g id="Icon"><path d="M250,75,75,250,250,425,425,250ZM224.89,328.88,146,250l34.24-34.24,44.64,44.64Zm-9.13-148.62L250,146l34.23,34.24L250,214.49ZM275.1,260.4l44.64-44.64L354,250,275.1,328.88Z"/><polygon class="cls-2" points="353.98 250 275.1 328.88 275.1 260.4 319.74 215.76 353.98 250"/><polygon class="cls-2" points="224.89 260.4 224.89 328.88 146.01 250 180.25 215.76 224.89 260.4"/><polygon class="cls-3" points="284.23 180.26 250 214.49 215.76 180.26 250 146.02 284.23 180.26"/></g></svg>