<?xml version="1.0" encoding="UTF-8"?>
<svg id="Layer_2" data-name="Layer 2" xmlns="http://www.w3.org/2000/svg" viewBox="0 0 350 492.25">
  <defs>
    <style>
      .cls-1 {
        fill: #fff;
        stroke-width: 0px;
      }
    </style>
  </defs>
  <g id="Layer_1-2" data-name="Layer 1">
    <g>
      <g>
        <path class="cls-1" d="m23.58,490.44c-.54-.54-.8-1.17-.8-1.9v-19.77L.2,424.11c-.14-.27-.2-.57-.2-.9,0-.6.22-1.12.65-1.56.43-.43.95-.65,1.55-.65h18.86c1.14,0,2.06.28,2.76.85.7.57,1.19,1.12,1.46,1.66l10.03,20.17,10.04-20.17c.27-.54.75-1.09,1.45-1.66.7-.57,1.62-.85,2.76-.85h18.86c.6,0,1.12.22,1.55.65.43.44.65.96.65,1.56,0,.34-.07.64-.2.9l-22.58,44.65v19.77c0,.74-.27,1.37-.8,1.9-.54.54-1.17.8-1.91.8h-19.67c-.74,0-1.37-.26-1.91-.8Z"/>
        <path class="cls-1" d="m62.77,490.59c-.43-.43-.65-.96-.65-1.56,0-.27.03-.5.1-.7l22.38-64.02c.27-.87.77-1.64,1.51-2.31.73-.67,1.74-1,3.01-1h21.77c1.27,0,2.27.33,3.01,1,.73.67,1.24,1.44,1.5,2.31l22.38,64.02c.07.2.1.43.1.7,0,.6-.22,1.12-.65,1.56-.44.43-.95.65-1.55.65h-18.56c-2.01,0-3.31-.83-3.91-2.51l-2.41-6.62h-21.57l-2.41,6.62c-.6,1.67-1.91,2.51-3.91,2.51h-18.56c-.6,0-1.12-.22-1.56-.65Zm31.56-28.05h11.34l-5.72-18.66-5.62,18.66Z"/>
        <path class="cls-1" d="m153.58,489.34c-4.92-1.94-8.61-4.53-11.09-7.78-2.48-3.25-3.78-6.81-3.91-10.69,0-.6.22-1.12.65-1.56.43-.43.95-.65,1.55-.65h19.07c.94,0,1.69.12,2.26.35s1.25.68,2.06,1.36c1.94,1.54,4.42,2.31,7.43,2.31,2.27,0,4.1-.25,5.47-.75,1.37-.5,2.06-1.18,2.06-2.06,0-1.2-.9-2.12-2.71-2.76-1.81-.64-5.22-1.29-10.23-1.96-17.26-2.27-25.89-9.63-25.89-22.08,0-4.48,1.29-8.48,3.86-11.99,2.57-3.51,6.17-6.24,10.79-8.18,4.62-1.94,9.93-2.91,15.95-2.91s11.81,1.07,16.56,3.21c4.75,2.14,8.39,4.83,10.94,8.08,2.54,3.25,3.88,6.4,4.01,9.48,0,.6-.22,1.12-.65,1.55-.44.44-.92.65-1.46.65h-20.07c-.94,0-1.67-.11-2.21-.35-.54-.23-1.14-.65-1.81-1.25-1.41-1.21-3.18-1.81-5.32-1.81-3.21,0-4.82.94-4.82,2.81,0,1,.79,1.84,2.36,2.51,1.57.67,4.5,1.27,8.78,1.8,6.69.87,12.06,2.18,16.1,3.92,4.05,1.74,6.99,4.06,8.83,6.97,1.84,2.91,2.76,6.57,2.76,10.99,0,4.75-1.44,8.91-4.31,12.49-2.88,3.58-6.84,6.34-11.89,8.28-5.05,1.94-10.75,2.91-17.11,2.91-7.09,0-13.09-.97-18.01-2.91Z"/>
        <path class="cls-1" d="m206.16,490.59c-.43-.43-.65-.96-.65-1.56,0-.27.03-.5.1-.7l22.38-64.02c.27-.87.77-1.64,1.51-2.31.73-.67,1.74-1,3.01-1h21.77c1.27,0,2.27.33,3.01,1,.73.67,1.24,1.44,1.5,2.31l22.38,64.02c.07.2.1.43.1.7,0,.6-.22,1.12-.65,1.56-.44.43-.95.65-1.55.65h-18.56c-2.01,0-3.31-.83-3.91-2.51l-2.41-6.62h-21.57l-2.41,6.62c-.6,1.67-1.91,2.51-3.91,2.51h-18.56c-.6,0-1.12-.22-1.56-.65Zm31.56-28.05h11.34l-5.72-18.66-5.62,18.66Z"/>
        <path class="cls-1" d="m287.59,490.44c-.54-.54-.8-1.17-.8-1.9v-64.83c0-.73.27-1.37.8-1.9.53-.54,1.17-.8,1.91-.8h15.85c1.87,0,3.24.77,4.11,2.31l16.96,27.79v-27.4c0-.73.27-1.37.8-1.9.54-.54,1.17-.8,1.91-.8h18.16c.73,0,1.37.27,1.91.8.53.54.8,1.17.8,1.9v64.83c0,.74-.27,1.37-.8,1.9-.54.54-1.17.8-1.91.8h-15.85c-1.14,0-2.01-.23-2.61-.7-.6-.47-1.1-1-1.5-1.61l-16.96-25.59v25.19c0,.74-.27,1.37-.8,1.9-.54.54-1.17.8-1.91.8h-18.16c-.74,0-1.37-.26-1.91-.8Z"/>
      </g>
      <path class="cls-1" d="m175,0L0,175l175,175,175-175L175,0Zm25.11,185.4l44.64-44.64,34.24,34.24-78.87,78.87v-68.47Zm9.13-80.15l-34.24,34.24-34.24-34.24,34.24-34.24,34.24,34.24Zm-103.98,35.51l44.64,44.64v68.47l-78.87-78.87,34.24-34.24Z"/>
    </g>
  </g>
</svg>