<svg xmlns="http://www.w3.org/2000/svg" viewBox="0 0 350 492.24"><defs><style>.cls-1{fill:#fff;}.cls-2{fill:#00adb5;}.cls-3{fill:#ff5722;}</style></defs><title>logo_text_light_pure</title><g id="Layer_2" data-name="Layer 2"><g id="Layer_1-2" data-name="Layer 1"><path class="cls-1" d="M23.58,490.44a2.59,2.59,0,0,1-.8-1.91V468.77L.2,424.11a2,2,0,0,1-.2-.9,2.16,2.16,0,0,1,.65-1.56A2.16,2.16,0,0,1,2.21,421H21.07a4.29,4.29,0,0,1,2.76.85,5.25,5.25,0,0,1,1.46,1.66l10,20.17,10-20.17a5.2,5.2,0,0,1,1.45-1.66,4.29,4.29,0,0,1,2.76-.85H68.44a2.22,2.22,0,0,1,2.2,2.21,2,2,0,0,1-.2.9L47.87,468.77v19.76a2.75,2.75,0,0,1-2.72,2.71H25.49A2.59,2.59,0,0,1,23.58,490.44Z"/><path class="cls-1" d="M62.77,490.59a2.1,2.1,0,0,1-.66-1.56,2.46,2.46,0,0,1,.1-.7l22.38-64A5.06,5.06,0,0,1,86.1,422a4.23,4.23,0,0,1,3-1h21.77a4.27,4.27,0,0,1,3,1,5.06,5.06,0,0,1,1.51,2.3l22.37,64a2.15,2.15,0,0,1,.1.7,2.22,2.22,0,0,1-2.2,2.21H117.1a3.72,3.72,0,0,1-3.91-2.51l-2.41-6.62H89.21l-2.41,6.62a3.72,3.72,0,0,1-3.92,2.51H64.32A2.09,2.09,0,0,1,62.77,490.59Zm31.55-28h11.34l-5.72-18.66Z"/><path class="cls-1" d="M153.58,489.34c-4.92-1.95-8.62-4.53-11.09-7.78a18.27,18.27,0,0,1-3.91-10.69,2.22,2.22,0,0,1,2.2-2.21h19.07a5.9,5.9,0,0,1,2.26.36,8.42,8.42,0,0,1,2,1.35,11.59,11.59,0,0,0,7.43,2.31,16.08,16.08,0,0,0,5.47-.76c1.37-.5,2.06-1.18,2.06-2.05,0-1.21-.91-2.13-2.72-2.76a59.59,59.59,0,0,0-10.23-2q-25.89-3.4-25.89-22.07a19.77,19.77,0,0,1,3.86-12,25,25,0,0,1,10.79-8.18,40.94,40.94,0,0,1,16-2.91,40,40,0,0,1,16.55,3.21,28.26,28.26,0,0,1,10.94,8.08q3.81,4.86,4,9.48a2.09,2.09,0,0,1-.65,1.55,2,2,0,0,1-1.45.66H180.22a5.53,5.53,0,0,1-2.21-.36,7,7,0,0,1-1.81-1.25,7.83,7.83,0,0,0-5.31-1.81q-4.81,0-4.82,2.81c0,1,.79,1.84,2.36,2.51a37.4,37.4,0,0,0,8.78,1.81,61.88,61.88,0,0,1,16.1,3.91,18.8,18.8,0,0,1,8.83,7,20.19,20.19,0,0,1,2.76,11,19.41,19.41,0,0,1-4.31,12.5,27.58,27.58,0,0,1-11.89,8.28,47.45,47.45,0,0,1-17.11,2.9Q161,492.24,153.58,489.34Z"/><path class="cls-1" d="M206.16,490.59a2.1,2.1,0,0,1-.66-1.56,2.14,2.14,0,0,1,.11-.7l22.37-64a5.06,5.06,0,0,1,1.51-2.3,4.23,4.23,0,0,1,3-1h21.77a4.25,4.25,0,0,1,3,1,5.06,5.06,0,0,1,1.51,2.3l22.37,64a2.14,2.14,0,0,1,.11.7,2.24,2.24,0,0,1-2.21,2.21H260.49a3.72,3.72,0,0,1-3.91-2.51l-2.41-6.62H232.6l-2.41,6.62a3.72,3.72,0,0,1-3.92,2.51H207.71A2.09,2.09,0,0,1,206.16,490.59Zm31.56-28h11.33l-5.72-18.66Z"/><path class="cls-1" d="M287.59,490.44a2.6,2.6,0,0,1-.81-1.91V423.71a2.75,2.75,0,0,1,2.71-2.71h15.86a4.39,4.39,0,0,1,4.11,2.31l17,27.79V423.71a2.59,2.59,0,0,1,.8-1.91,2.63,2.63,0,0,1,1.91-.8h18.16a2.73,2.73,0,0,1,2.71,2.71v64.82a2.73,2.73,0,0,1-2.71,2.71H331.44a4.16,4.16,0,0,1-2.61-.7,7,7,0,0,1-1.51-1.61l-17-25.58v25.18a2.73,2.73,0,0,1-2.71,2.71H289.49A2.57,2.57,0,0,1,287.59,490.44Z"/><path class="cls-1" d="M175,0,0,175,175,350,350,175ZM149.89,253.87,71,175l34.23-34.24,44.64,44.64Zm-9.13-148.62L175,71l34.24,34.24L175,139.49Zm59.35,80.15,44.64-44.64L279,175l-78.87,78.87Z"/><polygon class="cls-2" points="278.98 175 200.11 253.87 200.11 185.4 244.75 140.76 278.98 175"/><polygon class="cls-2" points="149.89 185.4 149.89 253.87 71.02 175 105.25 140.76 149.89 185.4"/><rect class="cls-3" x="150.79" y="81.04" width="48.42" height="48.42" transform="translate(-23.17 154.57) rotate(-45)"/></g></g></svg>