<svg xmlns="http://www.w3.org/2000/svg" viewBox="0 0 350 492.24"><defs><style>.cls-1{fill:#00adb5;}.cls-2{fill:#ff5722;}</style></defs><title>logo_text_dark_pure</title><g id="Layer_2" data-name="Layer 2"><g id="Layer_1-2" data-name="Layer 1"><path d="M23.58,490.44a2.63,2.63,0,0,1-.8-1.91V468.77L.2,424.11a2,2,0,0,1-.2-.9,2.16,2.16,0,0,1,.65-1.56A2.16,2.16,0,0,1,2.21,421H21.07a4.29,4.29,0,0,1,2.76.85,5.25,5.25,0,0,1,1.46,1.66l10,20.17,10-20.17a5.2,5.2,0,0,1,1.45-1.66,4.31,4.31,0,0,1,2.76-.85H68.44a2.22,2.22,0,0,1,2.2,2.21,1.92,1.92,0,0,1-.2.9L47.87,468.77v19.76a2.6,2.6,0,0,1-.81,1.91,2.57,2.57,0,0,1-1.9.8H25.49A2.59,2.59,0,0,1,23.58,490.44Z"/><path d="M62.77,490.59a2.09,2.09,0,0,1-.65-1.56,2.15,2.15,0,0,1,.1-.7l22.37-64A5.06,5.06,0,0,1,86.1,422a4.25,4.25,0,0,1,3-1h21.77a4.25,4.25,0,0,1,3,1,5.06,5.06,0,0,1,1.51,2.3l22.38,64a2.46,2.46,0,0,1,.1.7,2.24,2.24,0,0,1-2.21,2.21H117.1a3.72,3.72,0,0,1-3.91-2.51l-2.41-6.62H89.21l-2.41,6.62a3.72,3.72,0,0,1-3.91,2.51H64.32A2.09,2.09,0,0,1,62.77,490.59Zm31.56-28h11.33L100,443.88Z"/><path d="M153.58,489.34c-4.92-1.95-8.62-4.53-11.09-7.78a18.27,18.27,0,0,1-3.91-10.69,2.22,2.22,0,0,1,2.2-2.21h19.07a5.9,5.9,0,0,1,2.26.36,8.23,8.23,0,0,1,2,1.35,11.61,11.61,0,0,0,7.43,2.31,16.08,16.08,0,0,0,5.47-.76c1.37-.5,2.06-1.18,2.06-2.05,0-1.21-.91-2.13-2.71-2.76a60,60,0,0,0-10.24-2q-25.89-3.4-25.89-22.07a19.71,19.71,0,0,1,3.87-12,24.93,24.93,0,0,1,10.78-8.18,40.94,40.94,0,0,1,16-2.91,40,40,0,0,1,16.56,3.21,28.3,28.3,0,0,1,10.93,8.08q3.81,4.86,4,9.48a2.1,2.1,0,0,1-.66,1.55,2,2,0,0,1-1.45.66H180.22a5.53,5.53,0,0,1-2.21-.36,6.93,6.93,0,0,1-1.8-1.25,7.87,7.87,0,0,0-5.32-1.81q-4.81,0-4.82,2.81c0,1,.79,1.84,2.36,2.51a37.4,37.4,0,0,0,8.78,1.81,61.78,61.78,0,0,1,16.1,3.91,18.88,18.88,0,0,1,8.84,7,20.28,20.28,0,0,1,2.75,11,19.35,19.35,0,0,1-4.31,12.5,27.58,27.58,0,0,1-11.89,8.28,47.41,47.41,0,0,1-17.11,2.9Q161,492.24,153.58,489.34Z"/><path d="M206.16,490.59a2.09,2.09,0,0,1-.65-1.56,2.15,2.15,0,0,1,.1-.7l22.37-64a5.06,5.06,0,0,1,1.51-2.3,4.25,4.25,0,0,1,3-1h21.77a4.25,4.25,0,0,1,3,1,5.06,5.06,0,0,1,1.51,2.3l22.38,64a2.46,2.46,0,0,1,.1.7,2.24,2.24,0,0,1-2.21,2.21H260.49a3.72,3.72,0,0,1-3.91-2.51l-2.41-6.62H232.6l-2.41,6.62a3.72,3.72,0,0,1-3.91,2.51H207.71A2.09,2.09,0,0,1,206.16,490.59Zm31.56-28h11.34l-5.72-18.66Z"/><path d="M287.59,490.44a2.6,2.6,0,0,1-.81-1.91V423.71a2.75,2.75,0,0,1,2.71-2.71h15.86a4.39,4.39,0,0,1,4.11,2.31l17,27.79V423.71a2.73,2.73,0,0,1,2.71-2.71h18.16a2.73,2.73,0,0,1,2.71,2.71v64.82a2.63,2.63,0,0,1-.8,1.91,2.59,2.59,0,0,1-1.91.8H331.44a4.16,4.16,0,0,1-2.61-.7,7,7,0,0,1-1.51-1.61l-17-25.58v25.18a2.73,2.73,0,0,1-2.7,2.71H289.49A2.57,2.57,0,0,1,287.59,490.44Z"/><rect x="51.26" y="51.26" width="247.49" height="247.49" transform="translate(-72.49 175) rotate(-45)"/><polygon points="149.89 253.87 71.02 175 105.26 140.76 149.89 185.4 149.89 253.87"/><rect x="150.79" y="81.04" width="48.42" height="48.42" transform="translate(-23.17 154.57) rotate(-45)"/><polygon points="200.11 185.4 244.75 140.76 278.98 175 200.11 253.87 200.11 185.4"/><polygon class="cls-1" points="278.98 175 200.11 253.87 200.11 185.4 244.75 140.76 278.98 175"/><polygon class="cls-1" points="149.89 185.4 149.89 253.87 71.02 175 105.26 140.76 149.89 185.4"/><rect class="cls-2" x="150.79" y="81.04" width="48.42" height="48.42" transform="translate(-23.17 154.57) rotate(-45)"/></g></g></svg>